<svg xmlns="http://www.w3.org/2000/svg" viewBox="0 0 250 134.01801877980384" preserveAspectRatio="xMidYMid meet" id="hcgbgaeg"><defs id="SvgjsDefs4741"/><g id="SvgjsG4742" featurekey="symbolFeature-0" transform="matrix(0.9117095470428467,0,0,0.9117095470428467,81.70450788654902,-2.211807467126533)" fill="#111"><path xmlns="http://www.w3.org/2000/svg" d="M11.674,2.426c0,0,0.031,0.124,0.087,0.354c0.028,0.116,0.062,0.258,0.102,0.426c0.038,0.168,0.075,0.363,0.117,0.583  c0.045,0.219,0.082,0.462,0.125,0.728c0.048,0.265,0.074,0.555,0.11,0.864c0.061,0.62,0.116,1.325,0.1,2.098  c-0.012,0.772-0.075,1.613-0.218,2.49c-0.142,0.876-0.354,1.791-0.608,2.709c-0.249,0.921-0.528,1.849-0.74,2.789  c-0.212,0.939-0.358,1.894-0.384,2.857c-0.014,0.24-0.006,0.481-0.009,0.722c0.01,0.241,0.013,0.481,0.033,0.722l0.028,0.36  l0.004,0.045l0.001,0.022l0.001,0.012c0.001,0.017-0.001-0.011,0-0.003l0.011,0.093l0.021,0.187  c0.015,0.123,0.027,0.252,0.045,0.369c0.019,0.114,0.038,0.228,0.057,0.341c0.154,0.925,0.431,1.825,0.768,2.665  c0.348,0.839,0.759,1.626,1.2,2.353c0.436,0.729,0.893,1.404,1.309,2.039c0.418,0.634,0.793,1.232,1.083,1.792  c0.293,0.558,0.486,1.084,0.582,1.53c0.101,0.446,0.092,0.806,0.078,1.044c-0.009,0.12-0.029,0.21-0.036,0.271  c-0.009,0.061-0.014,0.092-0.014,0.092s-0.001-0.032-0.005-0.093c-0.005-0.062-0.006-0.152-0.017-0.269  c-0.026-0.234-0.091-0.572-0.246-0.974c-0.155-0.402-0.414-0.857-0.755-1.353c-0.345-0.494-0.781-1.023-1.259-1.61  c-0.478-0.586-1.002-1.228-1.515-1.952c-0.514-0.721-1.009-1.531-1.429-2.423c-0.205-0.448-0.397-0.913-0.554-1.398  c-0.043-0.12-0.08-0.243-0.115-0.366c-0.036-0.123-0.072-0.247-0.108-0.371c-0.029-0.126-0.059-0.251-0.089-0.378l-0.044-0.189  l-0.037-0.196c-0.024-0.131-0.049-0.263-0.073-0.394c-0.022-0.129-0.036-0.249-0.054-0.374l-0.026-0.186l-0.013-0.093l-0.01-0.112  l-0.034-0.391c-0.024-0.26-0.029-0.523-0.042-0.786c0.001-0.264-0.01-0.527,0.004-0.791c0.036-1.056,0.202-2.107,0.456-3.098  c0.122-0.498,0.267-0.979,0.415-1.449c0.147-0.47,0.298-0.927,0.444-1.374c0.293-0.894,0.551-1.75,0.749-2.575  c0.199-0.824,0.332-1.616,0.42-2.354c0.089-0.738,0.125-1.423,0.145-2.032c0.005-0.305,0.011-0.59,0.007-0.855  c-0.001-0.265,0-0.509-0.01-0.729c-0.007-0.22-0.013-0.417-0.019-0.588c-0.009-0.172-0.017-0.318-0.023-0.437  C11.68,2.553,11.674,2.426,11.674,2.426z"/><path xmlns="http://www.w3.org/2000/svg" d="M14.191,3.304c0.38,0.382,0.734,0.792,1.071,1.214c0.084,0.105,0.168,0.212,0.249,0.32c0.083,0.107,0.163,0.216,0.241,0.326  c0.081,0.109,0.158,0.22,0.234,0.333c0.078,0.111,0.153,0.224,0.226,0.339c0.074,0.114,0.147,0.228,0.216,0.345  c0.07,0.117,0.143,0.232,0.208,0.352c0.136,0.236,0.261,0.478,0.384,0.722l0.173,0.372c0.057,0.125,0.105,0.253,0.159,0.379  c0.055,0.125,0.097,0.257,0.144,0.386l0.069,0.195l0.059,0.199c0.084,0.263,0.144,0.534,0.202,0.806l0.068,0.413  c0.018,0.139,0.027,0.279,0.041,0.418c0.018,0.14,0.01,0.281,0.014,0.422c0,0.071,0.002,0.141,0.001,0.212l-0.015,0.212  c-0.012,0.284-0.065,0.565-0.119,0.846l-0.111,0.415c-0.041,0.138-0.097,0.27-0.146,0.405c-0.046,0.137-0.112,0.265-0.176,0.394  c-0.065,0.127-0.122,0.262-0.203,0.38l-0.229,0.366c-0.084,0.116-0.174,0.228-0.261,0.342l-0.132,0.17l-0.144,0.158  c-0.097,0.105-0.193,0.211-0.289,0.319l-0.609-0.611h0c0.19-0.186,0.37-0.343,0.56-0.505c0.189-0.159,0.381-0.313,0.577-0.462  c0.195-0.149,0.395-0.293,0.596-0.434l0.305-0.206l0.311-0.198c0.209-0.128,0.42-0.253,0.635-0.371  c0.216-0.117,0.433-0.232,0.655-0.336c0.11-0.053,0.221-0.105,0.334-0.153c0.113-0.048,0.224-0.101,0.339-0.143l0.343-0.132  l0.349-0.118c0.116-0.039,0.235-0.069,0.353-0.104c0.117-0.036,0.237-0.063,0.356-0.09c0.238-0.061,0.481-0.098,0.722-0.137  l0.365-0.042c0.121-0.014,0.244-0.014,0.366-0.022c0.061-0.002,0.122-0.007,0.183-0.008l0.183,0.003  c0.123,0.005,0.244-0.001,0.366,0.014l0.364,0.033l0.36,0.059c0.12,0.016,0.238,0.049,0.355,0.078  c0.117,0.031,0.237,0.053,0.351,0.095l0.344,0.115c0.113,0.042,0.223,0.094,0.334,0.14l0.166,0.071l0.16,0.083l0.319,0.167  l-0.33-0.143l-0.165-0.071l-0.17-0.058c-0.113-0.038-0.225-0.08-0.339-0.113l-0.347-0.087c-0.114-0.034-0.233-0.046-0.35-0.067  c-0.117-0.02-0.233-0.043-0.352-0.05l-0.354-0.031l-0.354-0.005c-0.118-0.006-0.236,0.009-0.354,0.013l-0.176,0.01  c-0.059,0.005-0.117,0.014-0.175,0.021c-0.117,0.016-0.233,0.025-0.349,0.047l-0.346,0.066c-0.229,0.056-0.457,0.108-0.68,0.183  c-0.112,0.035-0.224,0.069-0.333,0.112c-0.11,0.042-0.221,0.079-0.329,0.125l-0.324,0.137l-0.318,0.15  c-0.106,0.048-0.208,0.107-0.313,0.161c-0.104,0.053-0.207,0.111-0.308,0.17c-0.205,0.114-0.403,0.24-0.6,0.367  c-0.197,0.127-0.389,0.262-0.579,0.399l-0.281,0.211l-0.276,0.218c-0.182,0.148-0.361,0.299-0.535,0.455  c-0.175,0.155-0.345,0.315-0.512,0.478c-0.163,0.162-0.332,0.334-0.473,0.495v0l-0.609-0.612c0.095-0.083,0.188-0.169,0.28-0.255  l0.14-0.129c0.043-0.046,0.084-0.094,0.125-0.141c0.083-0.095,0.168-0.188,0.249-0.285l0.22-0.306  c0.08-0.099,0.134-0.212,0.199-0.319c0.063-0.109,0.13-0.216,0.176-0.333c0.049-0.115,0.108-0.228,0.151-0.346l0.122-0.359  c0.063-0.245,0.127-0.491,0.154-0.746l0.027-0.19c0.005-0.064,0.007-0.128,0.011-0.192c0.004-0.128,0.021-0.257,0.012-0.386  c-0.004-0.129-0.004-0.258-0.012-0.388l-0.038-0.389c-0.038-0.258-0.077-0.517-0.141-0.772l-0.044-0.192l-0.054-0.19  c-0.037-0.127-0.069-0.255-0.114-0.38c-0.043-0.125-0.082-0.251-0.129-0.375l-0.144-0.372c-0.104-0.245-0.21-0.49-0.328-0.729  c-0.056-0.121-0.12-0.238-0.181-0.357c-0.061-0.12-0.125-0.236-0.191-0.353c-0.064-0.118-0.131-0.234-0.2-0.348  c-0.068-0.116-0.137-0.23-0.209-0.344c-0.07-0.114-0.143-0.227-0.218-0.338c-0.073-0.113-0.149-0.223-0.226-0.333  C14.871,4.14,14.546,3.71,14.191,3.304z"/><path xmlns="http://www.w3.org/2000/svg" d="M29.487,15.414c0,0-0.118-0.092-0.32-0.289c-0.202-0.196-0.487-0.498-0.802-0.925c-0.314-0.426-0.657-0.982-0.938-1.68  c-0.279-0.696-0.484-1.545-0.491-2.493c0-0.473,0.046-0.968,0.151-1.47c0.052-0.25,0.118-0.503,0.196-0.756  c0.075-0.252,0.18-0.508,0.269-0.741c0.193-0.488,0.407-0.989,0.657-1.489c0.25-0.502,0.538-1.008,0.909-1.5  c0.186-0.246,0.395-0.488,0.643-0.716c0.249-0.227,0.542-0.444,0.909-0.597c0.182-0.076,0.383-0.134,0.589-0.162  c0.103-0.015,0.205-0.021,0.302-0.024l0.135-0.001l0.055,0l0.021,0h0.009c0.032,0.002-0.059-0.004,0.074,0.004l0.028,0.002  c0.044,0.006,0.088,0.015,0.131,0.025c0.054,0.014,0.058,0.017,0.08,0.024l0.056,0.02l0.089,0.036l0.076,0.036  c0.095,0.047,0.181,0.095,0.257,0.145C32.729,2.962,32.868,3.067,33,3.177c0.521,0.44,0.92,0.96,1.262,1.503  c0.339,0.544,0.622,1.111,0.878,1.683c0.256,0.572,0.475,1.155,0.655,1.745c0.184,0.588,0.339,1.18,0.464,1.771  c0.256,1.182,0.41,2.358,0.492,3.496c0.042,0.569,0.067,1.129,0.072,1.677c0.011,0.548,0.001,1.083-0.018,1.603  c-0.036,1.04-0.129,2.018-0.232,2.916c-0.109,0.898-0.247,1.715-0.399,2.433c-0.073,0.359-0.154,0.693-0.227,1.002  c-0.079,0.308-0.152,0.59-0.224,0.843c-0.076,0.252-0.144,0.478-0.202,0.674c-0.061,0.195-0.12,0.36-0.165,0.495  c-0.093,0.267-0.148,0.409-0.148,0.409c0,0-0.001-0.152,0.003-0.435c0.007-0.283,0.019-0.696,0.042-1.219  c0.011-0.261,0.023-0.551,0.041-0.864c0.016-0.313,0.034-0.652,0.052-1.014c0.039-0.72,0.083-1.533,0.13-2.419  c0.051-0.883,0.078-1.84,0.09-2.849c0.002-1.009-0.011-2.07-0.086-3.162c-0.073-1.091-0.203-2.213-0.433-3.329  c-0.118-0.557-0.259-1.111-0.432-1.656c-0.175-0.544-0.38-1.077-0.622-1.589c-0.244-0.51-0.539-0.992-0.872-1.426  c-0.334-0.432-0.703-0.827-1.08-1.143c-0.093-0.079-0.188-0.151-0.276-0.211c-0.045-0.031-0.086-0.056-0.12-0.076l-0.022-0.013  c-0.004-0.002-0.008-0.004-0.012-0.007c0.001,0,0.003,0.001,0.004,0.001c0.005,0.001-0.008-0.003,0.028,0.007  c0.026,0.007,0.053,0.011,0.079,0.012l-0.026-0.004c0.124,0.008,0.024,0.002,0.047,0.003l-0.018-0.001l-0.034-0.002l-0.054-0.004  l-0.083-0.006c-0.048-0.002-0.091-0.003-0.132-0.001c-0.082,0.003-0.163,0.02-0.249,0.047c-0.171,0.054-0.358,0.163-0.538,0.306  c-0.181,0.143-0.356,0.316-0.521,0.504c-0.659,0.767-1.185,1.702-1.626,2.59c-0.115,0.236-0.218,0.442-0.309,0.659  c-0.091,0.215-0.17,0.432-0.238,0.648c-0.136,0.432-0.22,0.864-0.261,1.284c-0.086,0.841,0.012,1.633,0.196,2.311  c0.179,0.682,0.444,1.25,0.688,1.703c0.249,0.452,0.484,0.787,0.651,1.009C29.384,15.305,29.487,15.414,29.487,15.414z"/><path xmlns="http://www.w3.org/2000/svg" d="M20.123,35.363c0,0,0.004-0.021,0.016-0.061c0.013-0.04,0.03-0.101,0.062-0.175c0.059-0.151,0.162-0.367,0.327-0.623  c0.042-0.063,0.087-0.129,0.135-0.199c0.047-0.07,0.104-0.136,0.161-0.208c0.059-0.07,0.116-0.148,0.183-0.221  c0.068-0.072,0.139-0.146,0.211-0.223c0.037-0.038,0.075-0.077,0.113-0.116c0.041-0.036,0.082-0.073,0.123-0.111  c0.084-0.074,0.17-0.152,0.261-0.229c0.186-0.147,0.384-0.3,0.596-0.452c0.43-0.293,0.911-0.596,1.444-0.864  c0.134-0.067,0.269-0.135,0.407-0.204c0.137-0.072,0.281-0.125,0.424-0.19c0.145-0.061,0.291-0.122,0.438-0.184  c0.148-0.062,0.301-0.11,0.454-0.166c0.154-0.052,0.31-0.104,0.467-0.157c0.157-0.054,0.317-0.091,0.478-0.137  c0.162-0.042,0.324-0.083,0.488-0.125l0.229-0.057l0.238-0.056l0.237-0.055l0.217-0.057l0.218-0.055l0.222-0.064l0.224-0.063  l0.22-0.071l0.221-0.069l0.217-0.077c0.581-0.203,1.139-0.454,1.657-0.753c0.127-0.079,0.259-0.15,0.38-0.235l0.186-0.121  l0.18-0.128c0.24-0.169,0.46-0.358,0.679-0.545c0.426-0.385,0.805-0.803,1.135-1.23c0.332-0.426,0.612-0.864,0.856-1.282  c0.244-0.418,0.452-0.817,0.626-1.177c0.173-0.361,0.326-0.68,0.441-0.947c0.236-0.536,0.371-0.842,0.371-0.842  s-0.008,0.083-0.024,0.24c-0.019,0.156-0.042,0.387-0.089,0.677c-0.091,0.581-0.244,1.415-0.586,2.388  c-0.173,0.485-0.392,1.007-0.687,1.534c-0.294,0.527-0.659,1.062-1.104,1.565c-0.224,0.25-0.465,0.495-0.727,0.723  c-0.257,0.234-0.539,0.446-0.829,0.649c-0.582,0.407-1.225,0.736-1.882,1.008l-0.248,0.099l-0.25,0.089l-0.251,0.085l-0.253,0.076  l-0.253,0.073l-0.261,0.064l-0.261,0.062l-0.243,0.048c-0.163,0.03-0.325,0.061-0.486,0.091c-0.153,0.028-0.305,0.055-0.456,0.082  s-0.305,0.043-0.451,0.078c-0.148,0.032-0.294,0.064-0.439,0.096c-0.146,0.031-0.293,0.054-0.435,0.091  c-0.141,0.037-0.281,0.073-0.42,0.109c-0.138,0.037-0.28,0.064-0.412,0.108c-0.133,0.042-0.265,0.083-0.396,0.124  c-0.522,0.163-0.998,0.364-1.431,0.565c-0.213,0.105-0.415,0.213-0.605,0.318c-0.092,0.057-0.185,0.109-0.273,0.162  c-0.045,0.026-0.089,0.052-0.133,0.077c-0.042,0.027-0.083,0.054-0.124,0.081c-0.334,0.204-0.61,0.405-0.84,0.575  c-0.06,0.041-0.108,0.087-0.159,0.125c-0.05,0.04-0.1,0.076-0.142,0.113c-0.083,0.074-0.161,0.134-0.216,0.188  c-0.059,0.053-0.104,0.094-0.132,0.123C20.137,35.347,20.123,35.363,20.123,35.363z"/><path xmlns="http://www.w3.org/2000/svg" d="M15.542,20.583c0,0,0.062,0,0.176,0.012c0.114,0.012,0.282,0.04,0.49,0.097c0.208,0.058,0.458,0.149,0.725,0.299  c0.266,0.15,0.549,0.359,0.806,0.644c0.258,0.283,0.488,0.639,0.662,1.045c0.176,0.406,0.294,0.86,0.37,1.334  c0.015,0.119,0.039,0.239,0.047,0.36c0.01,0.121,0.021,0.244,0.031,0.366c0.007,0.246,0.02,0.496,0.011,0.746  c0,0.252-0.021,0.502-0.037,0.755c-0.023,0.251-0.05,0.504-0.083,0.755l-0.054,0.376l-0.013,0.094l-0.006,0.047l-0.003,0.023  c-0.004,0.015,0.007-0.025-0.009,0.035l-0.001,0.005l-0.001,0.009c-0.01,0.055-0.022,0.114-0.031,0.171  c-0.037,0.233-0.074,0.467-0.097,0.701c-0.05,0.466-0.082,0.924-0.094,1.357c-0.017,0.432-0.016,0.84,0.001,1.195  c0.01,0.177,0.026,0.34,0.049,0.479c0.023,0.14,0.057,0.251,0.082,0.315c0.025,0.07,0.031,0.067-0.013,0.058  c-0.021-0.005-0.048-0.008-0.068,0c-0.019,0.006-0.029,0.022-0.022,0.04c0.012,0.036,0.077,0.072,0.158,0.092  c0.082,0.016,0.177,0.037,0.277,0.059c0.199,0.045,0.41,0.108,0.567,0.167c0.038,0.012,0.074,0.027,0.107,0.041  c0.032,0.013,0.059,0.023,0.083,0.035c0.047,0.022,0.072,0.033,0.072,0.033s-0.002,0.027-0.006,0.078  c-0.001,0.027-0.007,0.055-0.013,0.09c-0.005,0.036-0.013,0.076-0.024,0.116c-0.02,0.087-0.058,0.177-0.104,0.286  c-0.054,0.101-0.123,0.208-0.222,0.311c-0.098,0.104-0.228,0.198-0.397,0.274c-0.169,0.078-0.384,0.149-0.669,0.158  c-0.068,0.004-0.148-0.005-0.225-0.011c-0.079-0.011-0.162-0.028-0.245-0.052c-0.167-0.051-0.338-0.134-0.487-0.247  c-0.3-0.225-0.492-0.531-0.598-0.803c-0.109-0.278-0.158-0.542-0.183-0.794s-0.028-0.499-0.014-0.742  c0.027-0.484,0.119-0.959,0.241-1.433c0.128-0.473,0.286-0.943,0.462-1.412c0.09-0.234,0.174-0.47,0.27-0.705l0.071-0.179  l0.005-0.013l0.002-0.005c-0.016,0.057-0.003,0.013-0.006,0.024l0.007-0.021l0.014-0.042l0.028-0.084l0.108-0.339  c0.066-0.227,0.126-0.456,0.183-0.684c0.05-0.229,0.105-0.458,0.139-0.686c0.044-0.229,0.064-0.456,0.09-0.681  c0.006-0.113,0.013-0.225,0.02-0.336c0.008-0.112,0.001-0.221,0.003-0.331c-0.005-0.438-0.061-0.859-0.17-1.243  c-0.109-0.384-0.273-0.73-0.474-1.018c-0.199-0.291-0.441-0.516-0.676-0.685c-0.236-0.17-0.467-0.286-0.663-0.365  c-0.196-0.08-0.36-0.121-0.471-0.145C15.604,20.588,15.542,20.583,15.542,20.583z"/><path xmlns="http://www.w3.org/2000/svg" d="M13.867,34.238c0.046,0.451,0.103,0.899,0.169,1.346c0.067,0.446,0.134,0.892,0.217,1.335  c0.081,0.443,0.167,0.885,0.258,1.325c0.093,0.439,0.194,0.877,0.304,1.312c0.113,0.434,0.221,0.869,0.347,1.298l0.092,0.322  l0.1,0.32c0.068,0.212,0.13,0.427,0.206,0.637c0.074,0.21,0.143,0.422,0.22,0.631l0.233,0.625c0.166,0.412,0.328,0.825,0.515,1.226  c0.091,0.202,0.178,0.405,0.279,0.601c0.1,0.197,0.192,0.397,0.296,0.591l0.317,0.579c0.106,0.192,0.225,0.376,0.336,0.565  c0.058,0.093,0.11,0.189,0.172,0.28l0.184,0.271c0.124,0.18,0.239,0.366,0.375,0.536l0.394,0.52l0.42,0.494  c0.036,0.041,0.069,0.084,0.106,0.123l0.112,0.116l0.225,0.232l0.225,0.232l0.24,0.215l0.238,0.217l0.119,0.108  c0.041,0.034,0.084,0.065,0.126,0.099l0.505,0.396c0.355,0.235,0.703,0.484,1.082,0.679c0.364,0.222,0.762,0.376,1.147,0.556  l-0.775,0.896c-0.075-0.131-0.131-0.239-0.192-0.357c-0.058-0.116-0.117-0.231-0.171-0.349c-0.112-0.232-0.215-0.466-0.313-0.703  c-0.198-0.472-0.374-0.952-0.53-1.438l-0.116-0.365l-0.105-0.368c-0.073-0.245-0.129-0.494-0.189-0.742  c-0.063-0.247-0.105-0.5-0.159-0.749c-0.05-0.25-0.085-0.504-0.128-0.756c-0.038-0.253-0.063-0.508-0.093-0.762  c-0.025-0.254-0.038-0.511-0.057-0.766c-0.016-0.255-0.014-0.512-0.021-0.768c-0.005-0.128-0.001-0.256,0.003-0.384l0.013-0.384  c0.003-0.256,0.036-0.511,0.056-0.767c0.013-0.127,0.02-0.255,0.038-0.382l0.056-0.38l0.056-0.38  c0.02-0.126,0.052-0.251,0.077-0.376l0.081-0.375l0.041-0.188l0.052-0.185c0.07-0.247,0.138-0.493,0.21-0.738l0.259-0.722  c0.022-0.06,0.042-0.121,0.067-0.179l0.077-0.175l0.154-0.351l0.154-0.35l0.178-0.338l0.18-0.337  c0.061-0.111,0.116-0.226,0.187-0.332l0.404-0.645c0.034-0.053,0.066-0.108,0.102-0.16l0.112-0.154l0.223-0.307  c0.15-0.203,0.292-0.413,0.46-0.601l0.491-0.574c0.079-0.098,0.17-0.185,0.258-0.275l0.264-0.269l0.264-0.268l0.132-0.134  l0.14-0.125c0.187-0.167,0.374-0.333,0.563-0.496c0.095-0.08,0.185-0.167,0.285-0.242l0.297-0.228l0.592-0.454  c0.097-0.077,0.205-0.141,0.308-0.211l0.311-0.205c0.207-0.137,0.415-0.272,0.622-0.406c-0.37,0.332-0.752,0.643-1.115,0.976  l-0.533,0.511l-0.266,0.254c-0.089,0.084-0.167,0.179-0.252,0.268c-0.165,0.182-0.332,0.36-0.499,0.538l-0.125,0.134l-0.116,0.142  l-0.231,0.283l-0.231,0.283c-0.076,0.095-0.157,0.186-0.224,0.288l-0.422,0.593c-0.148,0.192-0.269,0.403-0.398,0.606l-0.192,0.307  l-0.096,0.153c-0.031,0.052-0.057,0.106-0.086,0.159l-0.338,0.638c-0.06,0.104-0.104,0.216-0.153,0.326l-0.146,0.329l-0.147,0.328  l-0.125,0.336l-0.125,0.336l-0.063,0.168c-0.02,0.056-0.035,0.114-0.052,0.171L22.2,40.533l-0.163,0.696l-0.041,0.174l-0.029,0.176  l-0.059,0.353c-0.019,0.117-0.042,0.234-0.056,0.352l-0.039,0.355l-0.039,0.354c-0.013,0.118-0.014,0.237-0.022,0.356  c-0.01,0.238-0.033,0.474-0.026,0.713v0.357c-0.001,0.119-0.002,0.237,0.006,0.356c0.014,0.238,0.018,0.476,0.039,0.713  c0.024,0.237,0.042,0.475,0.072,0.711c0.036,0.236,0.063,0.472,0.102,0.708c0.044,0.234,0.08,0.47,0.13,0.704  c0.054,0.232,0.096,0.467,0.16,0.697c0.06,0.231,0.117,0.463,0.187,0.691l0.1,0.344l0.11,0.341c0.149,0.454,0.315,0.902,0.502,1.34  c0.045,0.11,0.093,0.22,0.142,0.327c0.047,0.109,0.097,0.217,0.147,0.324c0.049,0.107,0.102,0.212,0.154,0.317  c0.051,0.102,0.109,0.212,0.157,0.296l0.021,0.037c0.167,0.296,0.061,0.671-0.235,0.838c-0.178,0.101-0.389,0.101-0.561,0.021  c-0.434-0.201-0.879-0.381-1.289-0.631c-0.425-0.222-0.809-0.508-1.202-0.778l-0.556-0.448c-0.046-0.038-0.093-0.074-0.138-0.113  l-0.13-0.122l-0.26-0.243l-0.258-0.244l-0.241-0.261l-0.24-0.262l-0.12-0.131c-0.039-0.044-0.074-0.091-0.112-0.137l-0.443-0.55  c-0.14-0.189-0.273-0.382-0.409-0.574c-0.14-0.188-0.256-0.392-0.382-0.589l-0.185-0.297c-0.062-0.099-0.115-0.203-0.172-0.304  c-0.111-0.205-0.23-0.405-0.334-0.613l-0.306-0.625c-0.1-0.209-0.188-0.424-0.281-0.635c-0.096-0.211-0.179-0.426-0.262-0.642  c-0.172-0.429-0.315-0.867-0.462-1.302l-0.201-0.66c-0.063-0.221-0.12-0.443-0.18-0.665c-0.062-0.221-0.11-0.445-0.164-0.667  l-0.079-0.334l-0.07-0.336c-0.047-0.224-0.095-0.447-0.134-0.672c-0.041-0.225-0.084-0.449-0.116-0.675  c-0.071-0.451-0.132-0.903-0.186-1.355c-0.053-0.453-0.098-0.905-0.126-1.359c-0.033-0.453-0.054-0.907-0.066-1.361  C13.849,35.145,13.844,34.69,13.867,34.238z"/><path xmlns="http://www.w3.org/2000/svg" d="M17.632,53.348c0,0,0.391,0.082,1.043,0.319c0.652,0.237,1.569,0.627,2.603,1.243c0.515,0.31,1.062,0.672,1.61,1.107  c0.548,0.435,1.101,0.938,1.621,1.525c0.521,0.587,1.006,1.263,1.395,2.032c0.191,0.386,0.364,0.79,0.493,1.218  c0.13,0.428,0.225,0.871,0.276,1.324c0.043,0.453,0.051,0.913,0.006,1.365c-0.009,0.113-0.028,0.225-0.042,0.337l-0.024,0.168  l-0.034,0.165l-0.071,0.328c-0.03,0.106-0.061,0.213-0.091,0.32c-0.029,0.106-0.064,0.21-0.103,0.313  c-0.038,0.103-0.075,0.205-0.112,0.308c-0.043,0.099-0.087,0.196-0.13,0.295c-0.043,0.098-0.086,0.195-0.137,0.288  c-0.097,0.188-0.192,0.374-0.302,0.548c-0.054,0.088-0.107,0.175-0.161,0.262c-0.058,0.083-0.115,0.166-0.172,0.248  c-0.458,0.658-0.975,1.214-1.491,1.695c-0.516,0.484-1.046,0.876-1.54,1.222c-0.501,0.336-0.972,0.618-1.4,0.846  c-0.216,0.11-0.413,0.22-0.603,0.309c-0.19,0.088-0.364,0.17-0.522,0.239c-0.157,0.072-0.301,0.13-0.427,0.179  c-0.125,0.05-0.232,0.09-0.319,0.122c-0.174,0.063-0.268,0.098-0.268,0.098s0.069-0.071,0.2-0.204  c0.13-0.133,0.328-0.315,0.57-0.558c0.121-0.121,0.256-0.251,0.403-0.394c0.144-0.144,0.299-0.3,0.466-0.466  c0.331-0.332,0.695-0.71,1.078-1.126c0.188-0.211,0.386-0.426,0.578-0.657c0.095-0.117,0.194-0.231,0.293-0.35  c0.096-0.12,0.19-0.244,0.287-0.368c0.382-0.498,0.749-1.037,1.061-1.609c0.306-0.574,0.57-1.178,0.714-1.801  c0.083-0.31,0.119-0.626,0.149-0.94c0.021-0.316,0.013-0.633-0.018-0.949c-0.033-0.316-0.099-0.632-0.182-0.944  c-0.086-0.313-0.202-0.621-0.332-0.926c-0.265-0.607-0.613-1.188-0.992-1.738c-0.387-0.545-0.803-1.06-1.229-1.53  c-0.422-0.475-0.852-0.907-1.257-1.303c-0.406-0.395-0.794-0.749-1.143-1.062s-0.661-0.58-0.919-0.803  C17.939,53.601,17.632,53.348,17.632,53.348z"/><path xmlns="http://www.w3.org/2000/svg" d="M13.867,75.89c0,0,0.177-0.034,0.504-0.104c0.328-0.067,0.805-0.184,1.408-0.334c0.603-0.154,1.329-0.352,2.151-0.604  c0.821-0.255,1.739-0.557,2.717-0.936c0.979-0.374,2.02-0.82,3.082-1.351c0.529-0.271,1.07-0.546,1.603-0.863  c0.27-0.151,0.532-0.321,0.803-0.481c0.263-0.173,0.534-0.337,0.794-0.522c0.528-0.358,1.044-0.747,1.552-1.155  c0.125-0.104,0.25-0.209,0.376-0.313c0.125-0.106,0.244-0.218,0.367-0.327l0.184-0.163l0.179-0.17  c0.119-0.113,0.238-0.227,0.358-0.341c0.929-0.936,1.788-1.962,2.492-3.091c0.727-1.113,1.286-2.329,1.732-3.565  c0.028-0.077,0.058-0.154,0.083-0.232l0.073-0.235c0.049-0.156,0.097-0.313,0.146-0.469c0.091-0.314,0.174-0.63,0.257-0.944  c0.067-0.318,0.146-0.632,0.203-0.949c0.028-0.158,0.056-0.316,0.084-0.474c0.028-0.158,0.06-0.314,0.079-0.473  c0.184-1.26,0.273-2.503,0.276-3.689c0.007-0.297-0.005-0.59-0.006-0.88c-0.003-0.145-0.001-0.288-0.008-0.431  s-0.014-0.284-0.021-0.424c-0.015-0.281-0.018-0.559-0.042-0.83c-0.021-0.271-0.045-0.537-0.063-0.799  c-0.015-0.263-0.049-0.518-0.074-0.769c-0.027-0.251-0.053-0.496-0.078-0.734c-0.064-0.479-0.125-0.932-0.182-1.357  c-0.066-0.425-0.132-0.824-0.186-1.195c-0.065-0.369-0.125-0.708-0.179-1.014c-0.102-0.616-0.204-1.096-0.264-1.427  c-0.06-0.331-0.092-0.508-0.092-0.508s0.078,0.162,0.217,0.468c0.069,0.153,0.154,0.343,0.254,0.565  c0.049,0.111,0.105,0.231,0.16,0.36c0.052,0.13,0.107,0.268,0.166,0.414c0.117,0.292,0.246,0.616,0.38,0.972  c0.129,0.357,0.26,0.747,0.404,1.163c0.136,0.418,0.263,0.869,0.407,1.344c0.065,0.238,0.125,0.485,0.189,0.737  c0.062,0.253,0.134,0.511,0.187,0.778c0.239,1.063,0.43,2.236,0.551,3.494c0.117,1.257,0.135,2.603,0.018,3.995  c-0.009,0.174-0.032,0.349-0.051,0.524c-0.021,0.175-0.042,0.351-0.063,0.527c-0.047,0.353-0.117,0.706-0.175,1.063  c-0.074,0.354-0.151,0.711-0.236,1.068c-0.049,0.177-0.099,0.354-0.148,0.532l-0.075,0.268c-0.027,0.089-0.058,0.176-0.086,0.265  c-0.452,1.416-1.088,2.81-1.907,4.089c-0.404,0.644-0.865,1.248-1.342,1.833l-0.368,0.428c-0.122,0.144-0.256,0.274-0.384,0.412  c-0.254,0.276-0.528,0.529-0.793,0.789c-0.545,0.502-1.107,0.977-1.691,1.402c-0.583,0.427-1.171,0.828-1.776,1.177  c-0.297,0.183-0.603,0.342-0.901,0.509c-0.303,0.157-0.602,0.315-0.905,0.453c-0.602,0.288-1.2,0.543-1.79,0.769  c-0.591,0.224-1.17,0.423-1.735,0.596c-0.567,0.165-1.115,0.322-1.647,0.444c-1.062,0.254-2.047,0.419-2.92,0.534  c-0.875,0.111-1.64,0.169-2.271,0.195c-0.63,0.028-1.126,0.019-1.462,0.013C14.046,75.906,13.867,75.89,13.867,75.89z"/><path xmlns="http://www.w3.org/2000/svg" d="M49.798,56.552c-0.255,0.315-0.497,0.64-0.731,0.969c-0.231,0.331-0.462,0.662-0.679,1.001  c-0.109,0.169-0.214,0.341-0.32,0.511l-0.309,0.517c-0.099,0.175-0.201,0.347-0.297,0.522c-0.094,0.177-0.191,0.352-0.282,0.529  l-0.267,0.535l-0.252,0.541l-0.236,0.546c-0.078,0.183-0.145,0.369-0.218,0.553c-0.075,0.183-0.135,0.371-0.202,0.557l-0.097,0.279  l-0.085,0.282c-0.056,0.188-0.118,0.374-0.162,0.565c-0.047,0.189-0.102,0.378-0.144,0.568L45.398,65.6  c-0.035,0.191-0.06,0.385-0.09,0.576c-0.035,0.19-0.048,0.384-0.068,0.576l-0.029,0.288c-0.01,0.096-0.009,0.192-0.014,0.288  c-0.005,0.192-0.021,0.385-0.017,0.576l0.013,0.574c0.006,0.191,0.032,0.381,0.046,0.571c0.009,0.095,0.014,0.189,0.027,0.284  l0.046,0.281l0.046,0.282l0.022,0.141c0.009,0.046,0.022,0.092,0.033,0.139l0.129,0.555c0.046,0.184,0.112,0.362,0.166,0.544  l0.085,0.271c0.033,0.089,0.07,0.177,0.105,0.265l0.214,0.527l0.25,0.512c0.042,0.085,0.081,0.172,0.126,0.255l0.145,0.247  l0.289,0.492l-0.067-0.091c0.067,0.073,0.162,0.172,0.25,0.258c0.09,0.089,0.182,0.177,0.276,0.265  c0.187,0.177,0.381,0.349,0.579,0.515c0.397,0.333,0.807,0.654,1.236,0.948c0.211,0.152,0.432,0.291,0.646,0.438  c0.223,0.135,0.44,0.277,0.667,0.405c0.451,0.26,0.912,0.503,1.383,0.723l0.354,0.165c0.118,0.056,0.24,0.101,0.359,0.152  l0.361,0.148c0.119,0.051,0.243,0.089,0.365,0.135c0.245,0.086,0.488,0.179,0.738,0.251c0.25,0.073,0.495,0.161,0.749,0.218  l0.379,0.096c0.126,0.031,0.252,0.066,0.38,0.088l0.767,0.15l0.774,0.109c0.129,0.021,0.259,0.027,0.389,0.039l0.391,0.032  c0.131,0.008,0.261,0.027,0.392,0.029l0.392,0.011c0.262,0.005,0.523,0.022,0.786,0.006l0.787-0.024l0.786-0.07  c0.264-0.017,0.523-0.062,0.785-0.101l0.393-0.057c0.131-0.02,0.263-0.036,0.392-0.066c0.517-0.112,1.041-0.204,1.553-0.354  c0.257-0.07,0.517-0.133,0.772-0.211l0.764-0.246l0.383-0.123l0.376-0.145l0.752-0.291l0.189-0.071l0.186-0.081l0.37-0.162  l0.743-0.327c0.487-0.234,0.971-0.479,1.464-0.714c-0.221,0.159-0.443,0.315-0.667,0.471c-0.225,0.154-0.445,0.317-0.675,0.465  l-0.701,0.425l-0.352,0.214l-0.176,0.106l-0.182,0.096l-0.73,0.379l-0.367,0.189l-0.377,0.168l-0.755,0.337  c-0.255,0.108-0.518,0.194-0.776,0.293c-0.26,0.093-0.517,0.199-0.785,0.271l-0.799,0.234c-0.133,0.043-0.269,0.072-0.404,0.103  l-0.408,0.093c-0.271,0.062-0.543,0.126-0.82,0.163l-0.829,0.13l-0.837,0.077c-0.279,0.032-0.56,0.03-0.841,0.04l-0.422,0.012  c-0.141,0.006-0.281-0.006-0.422-0.009l-0.422-0.017c-0.141-0.007-0.281-0.007-0.422-0.024l-0.842-0.082  c-0.279-0.04-0.558-0.086-0.837-0.131c-0.14-0.02-0.276-0.053-0.415-0.082l-0.414-0.091c-0.277-0.054-0.547-0.141-0.82-0.212  c-0.274-0.069-0.541-0.163-0.809-0.253c-0.134-0.047-0.27-0.087-0.4-0.14l-0.395-0.153c-0.132-0.054-0.265-0.101-0.394-0.158  l-0.388-0.172c-0.261-0.11-0.512-0.239-0.764-0.367c-0.254-0.122-0.497-0.268-0.744-0.402c-0.247-0.138-0.484-0.291-0.727-0.436  c-0.234-0.157-0.476-0.305-0.704-0.472c-0.463-0.322-0.907-0.674-1.339-1.04c-0.216-0.184-0.427-0.374-0.634-0.571  c-0.104-0.097-0.206-0.199-0.307-0.303c-0.104-0.106-0.196-0.203-0.31-0.333l-0.014-0.016c-0.021-0.023-0.039-0.05-0.054-0.075  l-0.315-0.561l-0.157-0.28c-0.05-0.095-0.092-0.193-0.139-0.29l-0.271-0.584c-0.079-0.201-0.15-0.404-0.225-0.605  c-0.037-0.101-0.075-0.201-0.11-0.303l-0.088-0.311c-0.056-0.208-0.123-0.413-0.168-0.623l-0.127-0.632  c-0.01-0.053-0.021-0.105-0.03-0.158l-0.019-0.16l-0.038-0.319l-0.038-0.319c-0.01-0.106-0.012-0.214-0.018-0.321  c-0.007-0.214-0.025-0.427-0.023-0.641l0.016-0.64c0.008-0.213,0.036-0.424,0.053-0.636c0.011-0.105,0.017-0.212,0.033-0.316  l0.049-0.314c0.034-0.209,0.06-0.419,0.11-0.624c0.047-0.206,0.088-0.412,0.14-0.616l0.169-0.607  c0.126-0.399,0.254-0.798,0.413-1.184l0.114-0.291l0.125-0.286c0.086-0.189,0.164-0.382,0.259-0.566  c0.094-0.186,0.182-0.373,0.28-0.555l0.297-0.545l0.316-0.531l0.333-0.521c0.113-0.172,0.231-0.34,0.347-0.509  c0.117-0.169,0.24-0.333,0.359-0.499c0.122-0.165,0.249-0.326,0.375-0.487c0.13-0.158,0.258-0.317,0.391-0.474  c0.266-0.311,0.533-0.618,0.817-0.911C49.203,57.106,49.489,56.816,49.798,56.552z"/><path xmlns="http://www.w3.org/2000/svg" d="M39.976,27.105c0.202,0.318,0.492,0.564,0.766,0.815l0.43,0.36c0.143,0.119,0.296,0.23,0.443,0.345  c0.149,0.113,0.294,0.229,0.446,0.339l0.46,0.323l0.458,0.324c0.151,0.109,0.312,0.209,0.466,0.313l0.934,0.624l0.95,0.602  c0.317,0.199,0.629,0.405,0.95,0.599l0.96,0.585l0.958,0.586l0.97,0.571c0.649,0.376,1.283,0.773,1.938,1.142  c0.652,0.371,1.3,0.75,1.949,1.125c0.646,0.378,1.303,0.744,1.955,1.114c0.654,0.368,1.306,0.741,1.956,1.114l1.966,1.098  l1.962,1.104l1.97,1.093l1.972,1.09c0.655,0.366,1.316,0.722,1.979,1.077l3.955,2.162l0.001,0.001  c0.039,0.021,0.077,0.045,0.112,0.069c0.17,0.119,0.306,0.219,0.452,0.328c0.144,0.107,0.286,0.215,0.425,0.324  c0.142,0.108,0.279,0.218,0.417,0.328c0.139,0.109,0.274,0.221,0.409,0.334c0.541,0.45,1.069,0.912,1.584,1.387  c1.031,0.949,2.022,1.94,2.96,2.982c0.936,1.042,1.824,2.13,2.658,3.26l0.313,0.424c0.104,0.142,0.201,0.288,0.302,0.432  l0.299,0.435c0.102,0.144,0.199,0.289,0.293,0.438l0.57,0.888l0.541,0.908c0.703,1.221,1.344,2.48,1.905,3.778  c0.548,1.305,1.021,2.642,1.404,4.009c0.09,0.343,0.172,0.688,0.258,1.032c0.041,0.173,0.088,0.344,0.123,0.519l0.102,0.522  l0.101,0.523c0.033,0.175,0.07,0.349,0.092,0.525l0.146,1.056l0.036,0.265l0.021,0.266l0.044,0.531  c0.025,0.354,0.068,0.708,0.068,1.064l0.029,1.065l0.003,0.134l0.001,0.033v0.04l-0.001,0.072l-0.005,0.161l-0.009,0.143  c-0.011,0.19-0.025,0.375-0.045,0.56c-0.152,1.464-0.493,2.871-0.966,4.24c-0.485,1.362-1.116,2.675-1.888,3.9  c-0.771,1.227-1.686,2.362-2.709,3.383l-0.389,0.379l-0.194,0.188l-0.205,0.178c-0.274,0.233-0.546,0.473-0.823,0.701l-0.864,0.649  c-0.142,0.112-0.292,0.21-0.442,0.308l-0.451,0.296l-0.451,0.295l-0.467,0.266l-0.467,0.265l-0.234,0.133l-0.116,0.065l-0.121,0.059  c-0.643,0.31-1.275,0.646-1.939,0.9l-0.493,0.205c-0.164,0.067-0.327,0.141-0.496,0.195l-1.005,0.349  c-0.168,0.057-0.334,0.12-0.503,0.171l-0.51,0.145l-1.021,0.288c-0.341,0.093-0.687,0.157-1.029,0.24  c-0.344,0.077-0.687,0.161-1.031,0.231l-1.037,0.181l-0.52,0.09c-0.173,0.029-0.346,0.063-0.52,0.081  c-0.695,0.084-1.39,0.183-2.086,0.254l-2.09,0.162c-0.017,0.001-0.033,0.002-0.05,0.001l-0.043-0.001  c-0.337-0.008-0.646-0.02-0.966-0.034c-0.317-0.014-0.634-0.03-0.949-0.05c-0.632-0.038-1.263-0.079-1.893-0.131  c-0.631-0.053-1.261-0.104-1.891-0.169c-0.63-0.065-1.261-0.132-1.891-0.21c-0.629-0.08-1.26-0.162-1.89-0.257  c-0.631-0.093-1.261-0.199-1.89-0.315c-1.26-0.23-2.519-0.506-3.774-0.851c-0.627-0.175-1.253-0.364-1.876-0.58  c-0.623-0.216-1.247-0.445-1.863-0.714c-0.616-0.271-1.23-0.563-1.831-0.903c-0.602-0.337-1.197-0.714-1.768-1.151  c-0.571-0.437-1.127-0.923-1.634-1.488c-0.505-0.563-0.974-1.196-1.342-1.906c-0.371-0.708-0.652-1.484-0.802-2.282  c-0.151-0.799-0.18-1.609-0.112-2.389l0.003-0.032c0.006-0.067,0.018-0.143,0.032-0.207c0.018-0.082,0.026-0.108,0.037-0.147  c0.011-0.041,0.02-0.072,0.03-0.104c0.02-0.066,0.04-0.129,0.06-0.187c0.041-0.122,0.088-0.231,0.135-0.345  c0.099-0.22,0.206-0.434,0.333-0.637c0.251-0.409,0.564-0.789,0.936-1.117c0.367-0.333,0.809-0.596,1.262-0.786  c0.456-0.196,0.936-0.286,1.392-0.327l0.339-0.009l0.167-0.003l0.164,0.013c0.217,0.018,0.431,0.033,0.632,0.079l0.303,0.059  c0.1,0.02,0.194,0.052,0.29,0.078l0.284,0.08c0.095,0.024,0.182,0.063,0.272,0.096c0.363,0.121,0.697,0.277,1.03,0.42  c0.32,0.166,0.646,0.308,0.947,0.484c0.152,0.087,0.308,0.166,0.454,0.258l0.438,0.274l0.217,0.137l0.21,0.147l0.419,0.289  c0.142,0.094,0.271,0.202,0.408,0.302l0.403,0.304c0.265,0.206,0.522,0.42,0.783,0.629c0.132,0.102,0.257,0.212,0.383,0.32  l0.38,0.323c0.258,0.21,0.5,0.438,0.749,0.657c0.249,0.218,0.497,0.437,0.739,0.661c0.244,0.224,0.489,0.445,0.738,0.661  c-0.257-0.208-0.519-0.409-0.78-0.609c-0.259-0.205-0.534-0.388-0.805-0.577c-0.271-0.188-0.543-0.373-0.825-0.545l-0.419-0.261  c-0.14-0.086-0.279-0.173-0.424-0.251c-0.29-0.156-0.572-0.322-0.864-0.469c-0.295-0.141-0.584-0.292-0.883-0.42l-0.448-0.188  l-0.224-0.092l-0.227-0.08l-0.453-0.158c-0.151-0.052-0.305-0.088-0.457-0.132c-0.301-0.094-0.608-0.144-0.911-0.197l-0.453-0.037  l-0.112-0.007l-0.111,0.003c-0.074,0.003-0.147,0.003-0.22,0.007c-0.146,0.002-0.287,0.024-0.424,0.048  c-0.068,0.013-0.138,0.02-0.203,0.037l-0.192,0.056c-0.254,0.069-0.472,0.187-0.659,0.303c-0.178,0.134-0.33,0.258-0.438,0.409  l-0.043,0.051l-0.038,0.057c-0.023,0.039-0.053,0.067-0.072,0.109c-0.022,0.038-0.044,0.075-0.067,0.11  c-0.02,0.039-0.039,0.079-0.061,0.115c-0.078,0.154-0.149,0.316-0.213,0.487c-0.033,0.084-0.061,0.173-0.088,0.258  c-0.011,0.041-0.026,0.084-0.034,0.12c-0.006,0.021-0.01,0.037-0.013,0.05c-0.002,0.008-0.004,0.016-0.003,0.016v0.002  c-0.002,0.008,0.005-0.019,0.007-0.029l0.035-0.24c-0.028,0.46,0,0.9,0.09,1.321c0.089,0.42,0.23,0.825,0.438,1.217  c0.208,0.39,0.469,0.772,0.789,1.137c0.32,0.362,0.686,0.715,1.092,1.044c0.408,0.328,0.846,0.645,1.316,0.935  c0.47,0.29,0.959,0.569,1.468,0.827s1.034,0.503,1.57,0.732c0.536,0.23,1.086,0.441,1.643,0.643  c0.556,0.204,1.122,0.394,1.693,0.571s1.148,0.347,1.73,0.501c0.583,0.155,1.169,0.302,1.761,0.438  c0.59,0.135,1.184,0.265,1.781,0.38c0.597,0.114,1.196,0.224,1.798,0.319c0.603,0.095,1.205,0.188,1.811,0.264  s1.212,0.149,1.818,0.206c0.304,0.029,0.606,0.056,0.909,0.079c0.3,0.024,0.611,0.047,0.895,0.063h-0.093l1.988-0.105  c0.167-0.006,0.33-0.028,0.495-0.044l0.494-0.05l0.987-0.102c0.166-0.014,0.327-0.044,0.491-0.068l0.488-0.077l0.979-0.153  c0.323-0.062,0.644-0.136,0.966-0.202l0.482-0.104c0.159-0.038,0.323-0.063,0.479-0.111l0.947-0.264l0.474-0.131  c0.157-0.046,0.31-0.104,0.465-0.155l0.928-0.316c0.156-0.049,0.305-0.115,0.455-0.177l0.451-0.185  c0.61-0.231,1.185-0.531,1.769-0.813l0.109-0.053l0.105-0.061l0.21-0.12l0.421-0.24l0.421-0.24l0.402-0.267l0.403-0.266  c0.135-0.088,0.271-0.176,0.396-0.275l0.768-0.581c0.246-0.205,0.486-0.418,0.729-0.626l0.182-0.157l0.171-0.168l0.343-0.335  c0.903-0.904,1.706-1.904,2.385-2.985c0.679-1.08,1.233-2.238,1.661-3.442c0.201-0.605,0.391-1.217,0.528-1.84  c0.141-0.621,0.249-1.25,0.313-1.872c0.016-0.154,0.028-0.31,0.037-0.459l0.006-0.112l0.003-0.095l0.001-0.056V73.48  c0,0.011,0-0.006,0-0.008l-0.001-0.03l-0.004-0.122l-0.029-0.977c-0.002-0.325-0.046-0.649-0.071-0.974l-0.044-0.486l-0.021-0.243  l-0.035-0.242l-0.143-0.967c-0.019-0.161-0.056-0.32-0.088-0.48l-0.097-0.479l-0.096-0.479c-0.034-0.16-0.079-0.317-0.118-0.476  c-0.083-0.315-0.159-0.633-0.245-0.947c-0.368-1.253-0.82-2.482-1.343-3.684c-0.535-1.196-1.146-2.361-1.815-3.493  c-0.669-1.133-1.422-2.218-2.21-3.276c-0.791-1.057-1.637-2.075-2.528-3.053c-0.891-0.978-1.822-1.922-2.796-2.817  c-0.485-0.449-0.982-0.886-1.488-1.307c-0.253-0.211-0.506-0.421-0.762-0.624c-0.128-0.103-0.256-0.201-0.385-0.3  c-0.125-0.096-0.263-0.199-0.37-0.277l0.113,0.071l-3.944-2.222c-0.655-0.374-1.312-0.747-1.961-1.132l-1.954-1.146l-1.952-1.147  l-1.934-1.182c-0.646-0.394-1.288-0.79-1.928-1.191c-0.638-0.407-1.274-0.814-1.908-1.226c-0.634-0.414-1.273-0.814-1.896-1.246  c-0.625-0.426-1.254-0.848-1.876-1.277c-0.313-0.211-0.621-0.433-0.93-0.653l-0.922-0.663l-0.92-0.666l-0.906-0.689l-0.903-0.69  c-0.299-0.232-0.591-0.478-0.886-0.715c-0.295-0.24-0.589-0.479-0.88-0.722l-0.858-0.751c-0.142-0.127-0.287-0.248-0.425-0.379  l-0.415-0.394l-0.411-0.395c-0.135-0.134-0.265-0.274-0.397-0.411c-0.131-0.139-0.266-0.272-0.392-0.415l-0.37-0.436  c-0.123-0.146-0.23-0.306-0.345-0.457C40.146,27.445,40.038,27.283,39.976,27.105z"/></g><g id="SvgjsG4743" featurekey="nameFeature-0" transform="matrix(1.0408730506896973,0,0,1.0408730506896973,-1.4155879245771121,91.92511482066827)" fill="#111"><path d="M16.28 40.44 c-2 0 -3.96 -0.4 -5.8 -1.16 c-1.76 -0.76 -3.36 -1.84 -4.72 -3.2 c-1.4 -1.36 -2.48 -2.96 -3.2 -4.76 c-0.8 -1.84 -1.2 -3.76 -1.2 -5.8 c0 -8.2 6.72 -14.88 14.92 -14.88 c2.32 0 4.64 0.56 6.68 1.6 c2.04 1 3.88 2.56 5.24 4.4 l0.64 0.8 l-4.28 3.16 l-0.6 -0.8 c-1.8 -2.44 -4.6 -3.84 -7.68 -3.84 c-5.28 0 -9.6 4.28 -9.6 9.56 c0 5.32 4.32 9.64 9.6 9.64 c3.04 0 5.84 -1.4 7.68 -3.84 l0.6 -0.76 l4.24 3.12 l-0.64 0.8 c-1.4 1.88 -3.16 3.36 -5.24 4.4 c-2.04 1.04 -4.32 1.56 -6.64 1.56 z M58.727000000000004 40 l-5.76 0 l-2.92 -7.68 l-9.44 0 l-2.96 7.68 l-5.72 0 l10.96 -28.48 l4.84 0 z M42.687 27.04 l5.28 0 l-2.64 -6.92 z M73.774 40 l-5.36 0 l0 -23.2 l-7 0 l0 -5.28 l19.36 0 l0 5.28 l-7 0 l0 23.2 z M100.58800000000001 40 l-5.32 0 l0 -28.48 l18.72 0 l0 5.24 l-13.4 0 l0 4.2 l7.4 0 l0 5.28 l-7.4 0 l0 13.76 z M125.555 40 l-5.36 0 l0 -28.48 l5.36 0 l0 28.48 z M157.12199999999999 40 l-5.16 0 l-12.64 -18.68 l0 18.68 l-5.36 0 l0 -28.48 l5.2 0 l12.6 18.64 l0 -18.64 l5.36 0 l0 28.48 z M173.689 40 l-9.56 0 l0 -28.48 l9.56 0 c8.04 0 14.6 6.4 14.6 14.24 s-6.56 14.24 -14.6 14.24 z M169.44899999999998 34.76 l4.24 0 c5.12 0 9.28 -4.04 9.28 -9 s-4.16 -9 -9.28 -9 l-4.24 0 l0 18 z M211.736 40 l-18.4 0 l0 -28.48 l18.76 0 l0 5.2 l-13.4 0 l0 4.2 l11.68 0 l0 5.32 l-11.68 0 l0 8.48 l13.04 0 l0 5.28 z M241.543 40 l-6.32 0 l-10.12 -13.92 l-2.28 0 l0 13.92 l-5.2 0 l0 -28.48 l10.2 0 c1.92 0 3.72 0.76 5.12 2.16 s2.16 3.2 2.16 5.12 c0 2.84 -1.68 5.4 -4.16 6.6 z M222.823 20.88 l5 0 c1.12 0 2.08 -0.92 2.08 -2.08 s-0.96 -2.08 -2.08 -2.08 l-5 0 l0 4.16 z"/></g></svg>